<svg width="147" height="51" viewBox="0 0 147 51" fill="none" xmlns="http://www.w3.org/2000/svg">
<g clip-path="url(#clip0_206_140)">
<path d="M65.3516 11.9724H67.9628L73.6639 21.9377L79.3413 11.9724H81.9763V28.7408H79.5088V16.2604L74.5025 25.1476H72.8255L67.8191 16.2604V28.7408H65.3517V11.9724H65.3516ZM86.1443 28.7408V11.9724H98.0499V14.1524H88.6118V19.159H97.0917V21.3388H88.6118V26.5369H98.0499V28.7408H86.1443ZM100.35 11.9724H114.339V14.1524H108.566V28.7408H106.123V14.1524H100.35V11.9724ZM117.094 28.7408V11.9724H128.999V14.1524H119.561V19.159H128.041V21.3388H119.561V26.5369H128.999V28.7408H117.094ZM135.18 11.9724V19.2787H137.767L142.869 11.9724H145.672L139.899 20.3088L146.486 28.7408H143.516L137.863 21.4827H135.18V28.7408H132.712V11.9724H135.18Z" fill="white"/>
<path d="M66.6892 35.9723V35.4029C67.1231 35.4029 67.4365 35.3486 67.6293 35.2401C67.822 35.1317 67.9184 34.9405 67.9184 34.6662C67.9184 34.4615 67.8492 34.2926 67.7091 34.1617C67.5688 34.0305 67.3746 33.9658 67.1275 33.9658C66.5793 33.9658 66.2494 34.246 66.1378 34.8063L65.4871 34.6873C65.6723 33.8452 66.2207 33.4235 67.1336 33.4235C67.6157 33.4235 67.9939 33.538 68.2679 33.767C68.5406 33.9975 68.6776 34.2821 68.6776 34.6211C68.6776 35.0837 68.4021 35.4286 67.8507 35.656C68.4804 35.8324 68.7952 36.1983 68.7952 36.7528C68.7952 37.1353 68.6506 37.4607 68.3614 37.729C68.0737 37.9986 67.682 38.1326 67.1863 38.1326C66.1965 38.1326 65.585 37.6491 65.3516 36.6835L66.0023 36.5689C66.1588 37.2499 66.525 37.5903 67.1005 37.5903C67.4049 37.5903 67.6368 37.5074 67.7963 37.3433C67.956 37.1792 68.036 36.9727 68.036 36.7256C68.036 36.5206 67.9817 36.3581 67.8749 36.2374C67.7664 36.117 67.6307 36.0417 67.4665 36.0146C67.3024 35.9858 67.0433 35.9724 66.6893 35.9724L66.6892 35.9723ZM76.3596 38.0059H75.6728C75.6456 37.8643 75.6187 37.5962 75.5915 37.2029C75.2856 37.822 74.7644 38.1325 74.0279 38.1325C73.5277 38.1325 73.1435 37.9998 72.8753 37.7347C72.6073 37.4697 72.4731 37.1503 72.4731 36.7796C72.4731 36.3277 72.6644 35.9571 73.047 35.6664C73.4297 35.3772 74.0805 35.2311 74.9993 35.2311C75.123 35.2311 75.3203 35.237 75.5914 35.2491C75.5914 34.8966 75.5642 34.6406 75.51 34.4838C75.4558 34.3272 75.3399 34.2007 75.1635 34.1072C74.9873 34.0123 74.7553 33.9656 74.4676 33.9656C73.7641 33.9656 73.3559 34.2338 73.2413 34.7701L72.5995 34.66C72.7547 33.8361 73.4117 33.4233 74.567 33.4233C75.1817 33.4233 75.617 33.5589 75.8746 33.8316C76.132 34.1042 76.2603 34.5756 76.2603 35.246V37.1412C76.2603 37.4561 76.2933 37.7438 76.3595 38.0059H76.3596ZM75.5914 35.7824C75.3083 35.7643 75.0943 35.7554 74.9466 35.7554C74.3983 35.7554 73.9734 35.8456 73.669 36.025C73.3664 36.2056 73.2142 36.4678 73.2142 36.8128C73.2142 37.0297 73.2954 37.2164 73.4596 37.3687C73.6224 37.5224 73.8588 37.5992 74.1661 37.5992C74.585 37.5992 74.9285 37.447 75.1967 37.1443C75.4663 36.84 75.6003 36.4844 75.6003 36.0747C75.6003 35.9917 75.5973 35.8938 75.5913 35.7823L75.5914 35.7824ZM80.7186 38.0059V33.5498H82.7961C83.7073 33.5498 84.1623 33.9085 84.1623 34.6239C84.1623 35.106 83.9076 35.4389 83.3985 35.6242C84.0283 35.8005 84.3431 36.1832 84.3431 36.769C84.3431 37.1368 84.2346 37.4351 84.0191 37.6639C83.8022 37.8913 83.5026 38.0059 83.1198 38.0059H80.7186ZM81.4054 35.3937H82.7914C83.2299 35.3937 83.4483 35.1692 83.4483 34.7189C83.4483 34.3016 83.2299 34.0922 82.7914 34.0922H81.4054V35.3937ZM81.4054 37.4636H82.796C83.3217 37.4636 83.5837 37.2119 83.5837 36.7088C83.5837 36.1876 83.3217 35.9271 82.796 35.9271H81.4054V37.4636ZM90.0623 38.1324C89.4506 38.1324 88.973 37.9049 88.6295 37.4516C88.2875 36.9981 88.1158 36.4347 88.1158 35.7628C88.1158 35.0516 88.3086 34.4837 88.6944 34.0605C89.08 33.6358 89.5591 33.4233 90.133 33.4233C90.7491 33.4233 91.2325 33.6463 91.5882 34.0937C91.9422 34.5396 92.12 35.0968 92.12 35.7673C92.12 36.4618 91.9286 37.0312 91.5461 37.471C91.1634 37.9124 90.6693 38.1324 90.0623 38.1324ZM90.1164 37.5629C90.4689 37.5629 90.7641 37.4169 91.0037 37.1246C91.2417 36.8324 91.3607 36.3773 91.3607 35.7598C91.3607 35.1407 91.2356 34.6901 90.9857 34.4114C90.7355 34.1329 90.4418 33.9927 90.1075 33.9927C89.7624 33.9927 89.4717 34.1343 89.2321 34.4161C88.9941 34.6977 88.8751 35.1451 88.8751 35.7553C88.8751 36.4031 88.9941 36.8654 89.2321 37.1442C89.4718 37.4227 89.7656 37.5628 90.1165 37.5628L90.1164 37.5629ZM95.9332 37.4636L97.2168 33.5498H98.2533L99.4223 37.4636H99.7386V39.0273H99.2234L99.133 38.0059H96.2226L96.1321 39.0273H95.6171V37.4636H95.9333H95.9332ZM96.5796 37.4636H98.7082L97.7907 34.2098H97.5919L96.5796 37.4636Z" fill="white"/>
<path fill-rule="evenodd" clip-rule="evenodd" d="M0.0390625 13.1666L0.0507018 9.6447L15.203 0L15.2268 5.98059L0.0390625 13.1666Z" fill="white"/>
<path fill-rule="evenodd" clip-rule="evenodd" d="M0.03125 17.0187L20.9707 10.7676L20.9469 17.082L0.0342901 20.647L0.03125 17.0187Z" fill="white"/>
<path fill-rule="evenodd" clip-rule="evenodd" d="M0.0458984 28.1031L0.0574509 24.4273L28.7045 22.6575L28.7106 28.8744L0.0458984 28.1031Z" fill="white"/>
<path fill-rule="evenodd" clip-rule="evenodd" d="M0.0576172 35.2183L0.0696039 31.4243L37.1997 34.6893L37.2027 40.9596L0.0576172 35.2183Z" fill="white"/>
<path fill-rule="evenodd" clip-rule="evenodd" d="M0.035439 42.0442L0 37.9073L42.7031 44.5971V50.9796L0.035439 42.0442Z" fill="white"/>
<path fill-rule="evenodd" clip-rule="evenodd" d="M15.2119 6.01936C22.8344 7.36327 29.6766 8.56871 35.8427 9.65533C41.4229 10.6386 46.5139 11.5354 51.1663 12.3547C51.1663 11.611 51.1663 10.8663 51.1663 10.1219C51.1663 9.37764 51.1663 8.6329 51.1663 7.88712C46.5139 6.86721 41.4229 5.75062 35.8427 4.52641C29.6766 3.17374 22.8344 1.67322 15.2119 0.00012207C15.2119 1.00414 15.2119 2.00816 15.2119 3.01122C15.2119 4.01393 15.2119 5.01743 15.2119 6.01954V6.01936Z" fill="white"/>
<path fill-rule="evenodd" clip-rule="evenodd" d="M20.9514 10.7928C27.5239 11.8118 33.3447 12.7135 38.5252 13.516C43.1624 14.2343 47.3497 14.883 51.1416 15.4703C51.1427 16.2226 51.1438 16.9743 51.1446 17.7255C51.1456 18.4765 51.1464 19.2284 51.1475 19.9796C47.3542 19.6152 43.1651 19.2125 38.5291 18.7671C33.3435 18.2689 27.5204 17.7094 20.9453 17.077C20.9465 16.0301 20.9474 14.9824 20.9484 13.9357C20.9494 12.8886 20.9504 11.8405 20.9514 10.7929V10.7928Z" fill="white"/>
<path fill-rule="evenodd" clip-rule="evenodd" d="M28.6973 22.6545C33.5819 22.7657 37.9095 22.8641 41.765 22.9515C45.2183 23.0297 48.3392 23.1011 51.1657 23.165C51.1697 23.91 51.1738 24.6547 51.1777 25.3989C51.1815 26.143 51.1854 26.8885 51.1893 27.6326C48.3599 27.7886 45.2378 27.9605 41.781 28.1508C37.9215 28.3633 33.5894 28.602 28.6974 28.8714C28.6974 27.8353 28.6974 26.7982 28.6974 25.7618C28.6974 24.7266 28.6974 23.6903 28.6974 22.6544L28.6973 22.6545Z" fill="white"/>
<path fill-rule="evenodd" clip-rule="evenodd" d="M37.1963 34.6892C40.1919 33.8164 42.8624 33.0383 45.2577 32.3409C47.4157 31.7126 49.3728 31.1423 51.1553 30.6234C51.1511 31.3914 51.147 32.1592 51.1433 32.925C51.1393 33.691 51.1354 34.4566 51.1315 35.2212C49.3506 35.9549 47.3954 36.7611 45.2425 37.6486C42.8515 38.634 40.1855 39.7331 37.1963 40.9653C37.1963 39.9224 37.1963 38.8774 37.1963 37.8325C37.1963 36.7861 37.1963 35.7381 37.1963 34.6893V34.6892Z" fill="white"/>
<path fill-rule="evenodd" clip-rule="evenodd" d="M42.6904 44.5981C44.6862 43.0613 46.3769 41.7608 47.8246 40.6464C49.0772 39.6826 50.1742 38.8378 51.143 38.093C51.141 38.7859 51.139 39.479 51.1371 40.1698C51.1352 40.8606 51.1331 41.5519 51.1312 42.2416C50.1642 43.2449 49.0675 44.3833 47.8167 45.6813C46.3708 47.1818 44.6836 48.9326 42.6929 51C42.6928 49.9361 42.692 48.8708 42.6916 47.8043C42.6913 46.7373 42.691 45.6678 42.6904 44.5981Z" fill="white"/>
</g>
<defs>
<clipPath id="clip0_206_140">
<rect width="146.487" height="51" fill="white"/>
</clipPath>
</defs>
</svg>
