<svg width="146" height="51" viewBox="0 0 146 51" fill="none" xmlns="http://www.w3.org/2000/svg">
<path d="M65.1348 11.9327H67.7373L73.4195 21.8649L79.078 11.9327H81.7042V28.6454H79.245V16.2064L74.2553 25.0642H72.5838L67.5941 16.2064V28.6454H65.1349V11.9327H65.1348ZM85.8584 28.6454V11.9327H97.7244V14.1055H88.3177V19.0954H96.7694V21.268H88.3177V26.4488H97.7244V28.6454H85.8584ZM100.016 11.9327H113.959V14.1055H108.206V28.6454H105.77V14.1055H100.016V11.9327ZM116.705 28.6454V11.9327H128.571V14.1055H119.164V19.0954H127.616V21.268H119.164V26.4488H128.571V28.6454H116.705ZM134.731 11.9327V19.2148H137.309L142.395 11.9327H145.188L139.434 20.2414L146 28.6454H143.039L137.405 21.4114H134.731V28.6454H132.272V11.9327H134.731Z" fill="#2D6684"/>
<path d="M66.468 35.8529V35.2853C66.9004 35.2853 67.2127 35.2312 67.4049 35.1231C67.597 35.0151 67.693 34.8245 67.693 34.5511C67.693 34.3471 67.6241 34.1788 67.4845 34.0482C67.3447 33.9175 67.1511 33.853 66.9048 33.853C66.3585 33.853 66.0296 34.1323 65.9184 34.6908L65.2698 34.5722C65.4545 33.7329 66.001 33.3126 66.9109 33.3126C67.3913 33.3126 67.7683 33.4267 68.0414 33.6549C68.3132 33.8846 68.4498 34.1683 68.4498 34.5061C68.4498 34.9672 68.1752 35.311 67.6256 35.5376C68.2532 35.7134 68.567 36.0782 68.567 36.6308C68.567 37.012 68.4228 37.3363 68.1346 37.6037C67.8478 37.8724 67.4575 38.006 66.9634 38.006C65.9769 38.006 65.3674 37.5241 65.1348 36.5617L65.7834 36.4475C65.9394 37.1262 66.3043 37.4655 66.8779 37.4655C67.1812 37.4655 67.4124 37.3829 67.5714 37.2194C67.7305 37.0557 67.8103 36.85 67.8103 36.6037C67.8103 36.3993 67.7562 36.2374 67.6497 36.1171C67.5415 35.9971 67.4063 35.922 67.2427 35.8951C67.0791 35.8663 66.8208 35.853 66.4681 35.853L66.468 35.8529ZM76.1062 37.8797H75.4217C75.3946 37.7386 75.3678 37.4714 75.3407 37.0794C75.0358 37.6965 74.5163 38.0059 73.7822 38.0059C73.2838 38.0059 72.9008 37.8737 72.6335 37.6094C72.3664 37.3453 72.2326 37.0269 72.2326 36.6575C72.2326 36.2071 72.4233 35.8378 72.8046 35.548C73.1861 35.2597 73.8347 35.1141 74.7504 35.1141C74.8737 35.1141 75.0703 35.12 75.3406 35.1321C75.3406 34.7807 75.3135 34.5256 75.2594 34.3693C75.2055 34.2132 75.0899 34.0871 74.9141 33.994C74.7385 33.8994 74.5073 33.8528 74.2205 33.8528C73.5193 33.8528 73.1125 34.1202 72.9983 34.6547L72.3586 34.5449C72.5133 33.7238 73.1681 33.3124 74.3196 33.3124C74.9323 33.3124 75.3661 33.4475 75.6228 33.7193C75.8794 33.991 76.0072 34.4608 76.0072 35.129V37.0179C76.0072 37.3317 76.0401 37.6184 76.1062 37.8797H76.1062ZM75.3406 35.6636C75.0584 35.6456 74.8452 35.6367 74.6979 35.6367C74.1515 35.6367 73.7279 35.7266 73.4246 35.9054C73.123 36.0854 72.9712 36.3467 72.9712 36.6906C72.9712 36.9067 73.0522 37.0929 73.2159 37.2446C73.3781 37.3979 73.6138 37.4744 73.9201 37.4744C74.3375 37.4744 74.6799 37.3226 74.9471 37.0209C75.2159 36.7177 75.3494 36.3632 75.3494 35.9549C75.3494 35.8722 75.3464 35.7746 75.3405 35.6635L75.3406 35.6636ZM80.4508 37.8797V33.4384H82.5213C83.4295 33.4384 83.883 33.796 83.883 34.509C83.883 34.9894 83.6292 35.3213 83.1218 35.5059C83.7494 35.6817 84.0632 36.063 84.0632 36.6469C84.0632 37.0135 83.9551 37.3108 83.7403 37.5388C83.524 37.7655 83.2255 37.8797 82.8439 37.8797H80.4508ZM81.1353 35.2762H82.5166C82.9537 35.2762 83.1714 35.0525 83.1714 34.6036C83.1714 34.1877 82.9537 33.979 82.5166 33.979H81.1353V35.2762ZM81.1353 37.3392H82.5212C83.0451 37.3392 83.3063 37.0884 83.3063 36.587C83.3063 36.0674 83.0451 35.8078 82.5212 35.8078H81.1353V37.3392ZM89.7634 38.0058C89.1537 38.0058 88.6777 37.779 88.3354 37.3272C87.9945 36.8752 87.8234 36.3137 87.8234 35.6441C87.8234 34.9352 88.0156 34.3692 88.4 33.9475C88.7843 33.5241 89.2618 33.3124 89.8338 33.3124C90.4479 33.3124 90.9297 33.5346 91.2842 33.9805C91.637 34.4249 91.8142 34.9803 91.8142 35.6485C91.8142 36.3407 91.6235 36.9082 91.2423 37.3466C90.8608 37.7865 90.3684 38.0058 89.7634 38.0058ZM89.8173 37.4382C90.1687 37.4382 90.4628 37.2927 90.7016 37.0014C90.9388 36.7101 91.0575 36.2565 91.0575 35.6411C91.0575 35.024 90.9328 34.5749 90.6837 34.2971C90.4344 34.0196 90.1416 33.8799 89.8085 33.8799C89.4645 33.8799 89.1747 34.021 88.936 34.3018C88.6988 34.5825 88.5801 35.0284 88.5801 35.6366C88.5801 36.2822 88.6988 36.743 88.936 37.0208C89.1748 37.2985 89.4676 37.4381 89.8174 37.4381L89.8173 37.4382ZM95.6148 37.3392L96.8941 33.4384H97.9271L99.0923 37.3392H99.4075V38.8977H98.8941L98.8039 37.8797H95.9032L95.8131 38.8977H95.2997V37.3392H95.6149H95.6148ZM96.259 37.3392H98.3805L97.4661 34.0962H97.268L96.259 37.3392Z" fill="#2D6684"/>
<path fill-rule="evenodd" clip-rule="evenodd" d="M0.0380859 13.1229L0.0496865 9.61265L15.1516 0L15.1753 5.96071L0.0380859 13.1229Z" fill="#2D6684"/>
<path fill-rule="evenodd" clip-rule="evenodd" d="M0.03125 16.9622L20.9011 10.7318L20.8773 17.0252L0.03428 20.5784L0.03125 16.9622Z" fill="#2D6684"/>
<path fill-rule="evenodd" clip-rule="evenodd" d="M0.0458984 28.0097L0.0574125 24.3461L28.6092 22.5822L28.6153 28.7784L0.0458984 28.0097Z" fill="#2D6684"/>
<path fill-rule="evenodd" clip-rule="evenodd" d="M0.0576172 35.1012L0.0695641 31.3198L37.0762 34.574L37.0793 40.8234L0.0576172 35.1012Z" fill="#2D6684"/>
<path fill-rule="evenodd" clip-rule="evenodd" d="M0.0353212 41.9045L0 37.7814L42.5612 44.4489V50.8101L0.0353212 41.9045Z" fill="#2D6684"/>
<path fill-rule="evenodd" clip-rule="evenodd" d="M15.1611 5.99936C22.7583 7.3388 29.5777 8.54024 35.7234 9.62325C41.285 10.6032 46.3591 11.4971 50.9961 12.3136C50.9961 11.5724 50.9961 10.8301 50.9961 10.0882C50.9961 9.34648 50.9961 8.60421 50.9961 7.86091C46.3591 6.84439 41.285 5.73151 35.7234 4.51137C29.5777 3.16319 22.7583 1.66766 15.1611 0.00012207C15.1611 1.0008 15.1611 2.00148 15.1611 3.00121C15.1611 4.0006 15.1611 5.00076 15.1611 5.99953V5.99936Z" fill="#033D62"/>
<path fill-rule="evenodd" clip-rule="evenodd" d="M20.882 10.757C27.4327 11.7725 33.2342 12.6712 38.3975 13.4711C43.0193 14.187 47.1926 14.8335 50.9719 15.4188C50.973 16.1686 50.9741 16.9178 50.9749 17.6666C50.9759 18.4151 50.9767 19.1644 50.9778 19.9132C47.1971 19.55 43.0219 19.1486 38.4014 18.7047C33.2329 18.2082 27.4292 17.6505 20.876 17.0202C20.8772 15.9768 20.8781 14.9326 20.879 13.8894C20.88 12.8458 20.8811 11.8011 20.882 10.757V10.757Z" fill="#033D62"/>
<path fill-rule="evenodd" clip-rule="evenodd" d="M28.6025 22.5792C33.471 22.69 37.7842 22.7881 41.6269 22.8752C45.0686 22.9532 48.1792 23.0243 50.9963 23.088C51.0003 23.8305 51.0043 24.5728 51.0082 25.3145C51.012 26.0561 51.0159 26.7991 51.0198 27.5408C48.1998 27.6962 45.0881 27.8676 41.6428 28.0573C37.7961 28.269 33.4784 28.5069 28.6026 28.7755C28.6026 27.7428 28.6026 26.7091 28.6026 25.6761C28.6026 24.6444 28.6026 23.6116 28.6026 22.5791L28.6025 22.5792Z" fill="#033D62"/>
<path fill-rule="evenodd" clip-rule="evenodd" d="M37.0723 34.5738C40.0579 33.704 42.7195 32.9285 45.1069 32.2334C47.2577 31.6072 49.2083 31.0388 50.9848 30.5216C50.9807 31.2871 50.9766 32.0523 50.9729 32.8156C50.9689 33.579 50.965 34.342 50.9611 35.1041C49.1862 35.8354 47.2375 36.6389 45.0917 37.5234C42.7087 38.5056 40.0515 39.6011 37.0723 40.8292C37.0723 39.7897 37.0723 38.7482 37.0723 37.7067C37.0723 36.6638 37.0723 35.6193 37.0723 34.5739V34.5738Z" fill="#033D62"/>
<path fill-rule="evenodd" clip-rule="evenodd" d="M42.5488 44.4499C44.538 42.9182 46.223 41.622 47.6659 40.5113C48.9144 39.5507 50.0078 38.7087 50.9733 37.9664C50.9713 38.657 50.9693 39.3478 50.9674 40.0364C50.9656 40.7249 50.9634 41.4138 50.9615 42.1012C49.9978 43.1012 48.9047 44.2358 47.658 45.5295C46.217 47.025 44.5354 48.77 42.5513 50.8305C42.5512 49.7701 42.5504 48.7084 42.55 47.6454C42.5497 46.582 42.5493 45.5161 42.5488 44.4499Z" fill="#033D62"/>
</svg>
