<svg width="336" height="117" viewBox="0 0 336 117" fill="none" xmlns="http://www.w3.org/2000/svg">
<g clip-path="url(#clip0_218_157)">
<path d="M149.416 27.7021H155.405L168.482 50.3683L181.505 27.7021H187.548V65.842H181.889V37.4551L170.406 57.6693H166.559L155.076 37.4551V65.842H149.416V27.7021H149.416ZM197.109 65.842V27.7021H224.417V32.6606H202.769V44.048H222.219V49.0061H202.769V60.8292H224.417V65.842H197.109ZM229.692 27.7021H261.78V32.6606H248.538V65.842H242.933V32.6606H229.692V27.7021ZM268.098 65.842V27.7021H295.406V32.6606H273.758V44.048H293.209V49.0061H273.758V60.8292H295.406V65.842H268.098ZM309.582 27.7021V44.3205H315.516L327.22 27.7021H333.648L320.407 46.6634L335.516 65.842H328.704L315.736 49.3333H309.582V65.842H303.923V27.7021H309.582Z" fill="white"/>
<path d="M152.484 82.2909V80.9957C153.479 80.9957 154.198 80.8722 154.641 80.6254C155.083 80.3789 155.304 79.944 155.304 79.3201C155.304 78.8545 155.145 78.4704 154.824 78.1725C154.502 77.8741 154.056 77.727 153.49 77.727C152.232 77.727 151.475 78.3643 151.219 79.6388L149.727 79.3681C150.152 77.4527 151.41 76.4936 153.503 76.4936C154.609 76.4936 155.477 76.754 156.105 77.2747C156.731 77.7991 157.045 78.4465 157.045 79.2174C157.045 80.2696 156.413 81.0541 155.148 81.5714C156.593 81.9726 157.315 82.805 157.315 84.066C157.315 84.9361 156.983 85.6762 156.32 86.2864C155.66 86.8997 154.761 87.2045 153.624 87.2045C151.354 87.2045 149.951 86.1047 149.416 83.9083L150.909 83.6478C151.268 85.1967 152.108 85.9709 153.428 85.9709C154.126 85.9709 154.658 85.7825 155.024 85.4093C155.39 85.0359 155.573 84.5662 155.573 84.0042C155.573 83.5379 155.449 83.1683 155.204 82.8939C154.955 82.6198 154.644 82.4485 154.267 82.3871C153.891 82.3215 153.296 82.2911 152.484 82.2911L152.484 82.2909ZM174.665 86.9163H173.09C173.028 86.5942 172.966 85.9844 172.904 85.0898C172.202 86.498 171.006 87.2041 169.317 87.2041C168.17 87.2041 167.289 86.9024 166.673 86.2995C166.059 85.6967 165.751 84.9701 165.751 84.1271C165.751 83.0991 166.19 82.2563 167.067 81.5951C167.945 80.9372 169.438 80.6049 171.545 80.6049C171.829 80.6049 172.281 80.6183 172.903 80.646C172.903 79.8441 172.841 79.2618 172.717 78.9052C172.592 78.549 172.326 78.2612 171.922 78.0486C171.518 77.8328 170.986 77.7266 170.326 77.7266C168.712 77.7266 167.776 78.3366 167.513 79.5564L166.041 79.3059C166.397 77.432 167.904 76.4932 170.554 76.4932C171.964 76.4932 172.962 76.8016 173.553 77.4217C174.143 78.0419 174.438 79.1141 174.438 80.6389V84.9495C174.438 85.6657 174.513 86.32 174.665 86.9163H174.665ZM172.903 81.8588C172.254 81.8177 171.763 81.7974 171.424 81.7974C170.167 81.7974 169.192 82.0027 168.494 82.4106C167.8 82.8216 167.451 83.4178 167.451 84.2025C167.451 84.6958 167.637 85.1206 168.014 85.4669C168.387 85.8166 168.929 85.9913 169.634 85.9913C170.595 85.9913 171.383 85.6449 171.998 84.9564C172.616 84.2644 172.924 83.4555 172.924 82.5236C172.924 82.3349 172.917 82.1123 172.903 81.8586L172.903 81.8588ZM184.664 86.9163V76.7808H189.429C191.519 76.7808 192.563 77.5968 192.563 79.2239C192.563 80.3204 191.978 81.0777 190.811 81.4991C192.255 81.9001 192.977 82.7704 192.977 84.103C192.977 84.9394 192.729 85.6179 192.234 86.1383C191.737 86.6557 191.049 86.9163 190.171 86.9163H184.664ZM186.239 80.9747H189.418C190.424 80.9747 190.925 80.4642 190.925 79.4398C190.925 78.4907 190.424 78.0144 189.418 78.0144H186.239V80.9747ZM186.239 85.6827H189.429C190.634 85.6827 191.235 85.1103 191.235 83.966C191.235 82.7805 190.634 82.188 189.429 82.188H186.239V85.6827ZM206.095 87.2039C204.692 87.2039 203.597 86.6865 202.809 85.6554C202.025 84.6239 201.631 83.3425 201.631 81.8144C201.631 80.1967 202.073 78.905 202.958 77.9425C203.842 76.9764 204.941 76.4932 206.258 76.4932C207.671 76.4932 208.78 77.0003 209.596 78.018C210.407 79.0321 210.815 80.2994 210.815 81.8244C210.815 83.4042 210.376 84.6992 209.499 85.6997C208.621 86.7035 207.488 87.2039 206.095 87.2039ZM206.22 85.9087C207.028 85.9087 207.705 85.5766 208.255 84.9118C208.801 84.2472 209.074 83.2119 209.074 81.8075C209.074 80.3992 208.787 79.3744 208.214 78.7405C207.64 78.1071 206.966 77.7882 206.199 77.7882C205.408 77.7882 204.741 78.1102 204.191 78.7511C203.646 79.3916 203.372 80.4093 203.372 81.7972C203.372 83.2706 203.646 84.3222 204.191 84.9562C204.741 85.5898 205.415 85.9085 206.22 85.9085L206.22 85.9087ZM219.562 85.6827L222.506 76.7808H224.883L227.565 85.6827H228.29V89.2394H227.109L226.901 86.9163H220.226L220.018 89.2394H218.837V85.6827H219.562H219.562ZM221.044 85.6827H225.927L223.822 78.2819H223.366L221.044 85.6827Z" fill="white"/>
<path fill-rule="evenodd" clip-rule="evenodd" d="M0.0898438 30.4183L0.116541 22.4077L34.8716 0.470703L34.9262 14.0736L0.0898438 30.4183Z" fill="white"/>
<path fill-rule="evenodd" clip-rule="evenodd" d="M0.0722656 39.1793L48.1014 24.9609L48.0468 39.3231L0.0792388 47.4317L0.0722656 39.1793Z" fill="white"/>
<path fill-rule="evenodd" clip-rule="evenodd" d="M0.105469 64.392L0.131967 56.0314L65.8403 52.0059L65.8542 66.1463L0.105469 64.392Z" fill="white"/>
<path fill-rule="evenodd" clip-rule="evenodd" d="M0.133789 80.5747L0.161283 71.9453L85.3273 79.3716L85.3343 93.6333L0.133789 80.5747Z" fill="white"/>
<path fill-rule="evenodd" clip-rule="evenodd" d="M0.0822637 96.1008L0.000976562 86.6914L97.95 101.907V116.424L0.0822637 96.1008Z" fill="white"/>
<path fill-rule="evenodd" clip-rule="evenodd" d="M34.8926 14.1615C52.3765 17.2182 68.0705 19.96 82.2139 22.4316C95.0132 24.668 106.691 26.7079 117.362 28.5713C117.362 26.8797 117.362 25.1858 117.362 23.4927C117.362 21.8 117.362 20.106 117.362 18.4098C106.691 16.09 95.0132 13.5503 82.2139 10.7658C68.0705 7.68912 52.3765 4.27619 34.8926 0.470703C34.8926 2.75435 34.8926 5.038 34.8926 7.31947C34.8926 9.60016 34.8926 11.8826 34.8926 14.1619V14.1615Z" fill="white"/>
<path fill-rule="evenodd" clip-rule="evenodd" d="M48.0569 25.0195C63.1325 27.3372 76.4837 29.3881 88.3664 31.2134C99.0029 32.8472 108.607 34.3226 117.305 35.6584C117.307 37.3695 117.31 39.0792 117.312 40.7879C117.314 42.4961 117.316 44.2062 117.318 45.9149C108.618 45.0862 99.009 44.1701 88.3754 43.1569C76.4809 42.0239 63.1243 40.7512 48.043 39.3129C48.0458 36.9317 48.0477 34.5487 48.0499 32.168C48.0523 29.7864 48.0547 27.4024 48.0569 25.0197V25.0195Z" fill="white"/>
<path fill-rule="evenodd" clip-rule="evenodd" d="M65.8252 51.9982C77.0293 52.2511 86.9555 52.475 95.799 52.6737C103.72 52.8517 110.878 53.0139 117.361 53.1593C117.371 54.8538 117.38 56.5478 117.389 58.2405C117.398 59.9328 117.407 61.6285 117.416 63.3211C110.926 63.6757 103.765 64.0669 95.8357 64.4997C86.983 64.983 77.0464 65.5259 65.8254 66.1387C65.8254 63.782 65.8254 61.4231 65.8254 59.0657C65.8254 56.7113 65.8254 54.3542 65.8254 51.998L65.8252 51.9982Z" fill="white"/>
<path fill-rule="evenodd" clip-rule="evenodd" d="M85.3174 79.3716C92.1885 77.3865 98.3138 75.6167 103.808 74.0305C108.758 72.6015 113.247 71.3043 117.335 70.124C117.326 71.8709 117.316 73.6172 117.308 75.3591C117.299 77.1012 117.29 78.8425 117.281 80.5817C113.196 82.2505 108.711 84.0843 103.773 86.1028C98.2889 88.3442 92.1738 90.8442 85.3174 93.6468C85.3174 91.2747 85.3174 88.8978 85.3174 86.5211C85.3174 84.141 85.3174 81.7574 85.3174 79.3718V79.3716Z" fill="white"/>
<path fill-rule="evenodd" clip-rule="evenodd" d="M97.9209 101.909C102.499 98.4138 106.377 95.4556 109.697 92.9209C112.57 90.7287 115.087 88.8072 117.309 87.1133C117.304 88.6893 117.3 90.2656 117.295 91.8371C117.291 93.4083 117.286 94.9805 117.282 96.5492C115.064 98.8312 112.548 101.421 109.679 104.373C106.363 107.786 102.493 111.768 97.9267 116.47C97.9263 114.05 97.9245 111.627 97.9237 109.202C97.9229 106.775 97.9221 104.342 97.9209 101.909Z" fill="white"/>
</g>
<defs>
<clipPath id="clip0_218_157">
<rect width="336" height="116" fill="white" transform="translate(0 0.470703)"/>
</clipPath>
</defs>
</svg>
