<svg width="28" height="25" viewBox="0 0 28 25" fill="none" xmlns="http://www.w3.org/2000/svg">
<path d="M1.99984 0.0232544H25.9998C26.3535 0.0232544 26.6926 0.16373 26.9426 0.413779C27.1927 0.663827 27.3332 1.00297 27.3332 1.35659V22.6899C27.3332 23.0435 27.1927 23.3827 26.9426 23.6327C26.6926 23.8828 26.3535 24.0233 25.9998 24.0233H1.99984C1.64622 24.0233 1.30708 23.8828 1.05703 23.6327C0.80698 23.3827 0.666504 23.0435 0.666504 22.6899V1.35659C0.666504 1.00297 0.80698 0.663827 1.05703 0.413779C1.30708 0.16373 1.64622 0.0232544 1.99984 0.0232544ZM24.6665 5.67392L14.0958 15.1406L3.33317 5.64459V21.3566H24.6665V5.67392ZM4.0145 2.68992L14.0812 11.5726L24.0025 2.68992H4.0145Z" fill="white"/>
</svg>
