<svg width="24" height="25" viewBox="0 0 24 25" fill="none" xmlns="http://www.w3.org/2000/svg">
<path d="M8.488 10.2659C9.73912 12.4639 11.5594 14.2841 13.7573 15.5353L14.936 13.8846C15.1255 13.6192 15.4058 13.4324 15.7237 13.3597C16.0417 13.287 16.3752 13.3333 16.6613 13.4899C18.5471 14.5205 20.6296 15.1403 22.772 15.3086C23.1064 15.3351 23.4185 15.4866 23.6461 15.733C23.8737 15.9794 24 16.3025 24 16.6379V22.5873C24.0001 22.9174 23.8777 23.2358 23.6565 23.4809C23.4353 23.7259 23.1311 23.8802 22.8027 23.9139C22.096 23.9873 21.384 24.0233 20.6667 24.0233C9.25333 24.0233 0 14.7699 0 3.35659C0 2.63925 0.036 1.92725 0.109333 1.22059C0.143006 0.892184 0.297312 0.587949 0.542386 0.366766C0.78746 0.145584 1.10587 0.0231833 1.436 0.0232544H7.38533C7.72075 0.0232124 8.04386 0.14959 8.29024 0.377189C8.53662 0.604788 8.68817 0.916886 8.71467 1.25125C8.88297 3.39364 9.50277 5.47616 10.5333 7.36192C10.69 7.64801 10.7363 7.98158 10.6636 8.29952C10.5908 8.61745 10.4041 8.89771 10.1387 9.08726L8.488 10.2659ZM5.12533 9.38992L7.65867 7.58059C6.93971 6.02871 6.44714 4.38171 6.196 2.68992H2.68C2.672 2.91125 2.668 3.13392 2.668 3.35659C2.66667 13.2979 10.7253 21.3566 20.6667 21.3566C20.8893 21.3566 21.112 21.3526 21.3333 21.3433V17.8273C19.6415 17.5761 17.9945 17.0835 16.4427 16.3646L14.6333 18.8979C13.9049 18.6149 13.1973 18.2807 12.516 17.8979L12.4387 17.8539C9.82344 16.3655 7.65771 14.1998 6.16933 11.5846L6.12533 11.5073C5.74254 10.8259 5.40838 10.1184 5.12533 9.38992Z" fill="white"/>
</svg>
